<svg width="52" height="52" viewBox="0 0 52 52" fill="none" xmlns="http://www.w3.org/2000/svg">
<path d="M32.442 31.2657L29.8885 30.7014C29.6664 30.0102 29.3914 29.3361 29.0667 28.6867L30.4804 26.4512C30.7328 26.0517 30.6773 25.5273 30.3473 25.1918L26.3692 21.1475C26.0392 20.812 25.5234 20.7555 25.1305 21.0122L22.9316 22.4494C22.2928 22.1193 21.6297 21.8397 20.9499 21.6139L20.3948 19.0179C20.2957 18.554 19.8916 18.2231 19.4247 18.2231H13.799C13.3321 18.2231 12.9281 18.554 12.829 19.0179L12.2739 21.6139C11.594 21.8397 10.9309 22.1193 10.2922 22.4494L8.09327 21.0122C7.70038 20.7555 7.18455 20.812 6.85453 21.1475L2.87646 25.1918C2.54643 25.5273 2.49092 26.0517 2.74338 26.4512L4.15702 28.6867C3.83232 29.3361 3.5573 30.0102 3.33525 30.7014L0.781723 31.2657C0.325464 31.3667 0 31.7773 0 32.2519V37.9713C0 38.4459 0.325464 38.8565 0.781723 38.9575L3.33525 39.5218C3.5573 40.213 3.83232 40.8871 4.15702 41.5365L2.74338 43.772C2.49092 44.1715 2.54643 44.6959 2.87646 45.0314L6.85453 49.0757C7.18455 49.4112 7.70038 49.4677 8.09327 49.211L10.2922 47.7738C10.9309 48.1039 11.594 48.3835 12.2739 48.6093L12.829 51.2053C12.9281 51.6692 13.3321 52.0001 13.799 52.0001H19.4247C19.8916 52.0001 20.2957 51.6692 20.3948 51.2053L20.9499 48.6093C21.6297 48.3835 22.2928 48.1039 22.9316 47.7738L25.1305 49.211C25.5234 49.4677 26.0392 49.4115 26.3692 49.0757L30.3473 45.0314C30.6773 44.6959 30.7328 44.1715 30.4804 43.772L29.0667 41.5365C29.3914 40.8871 29.6664 40.213 29.8885 39.5218L32.442 38.9575C32.8983 38.8565 33.2237 38.4459 33.2237 37.9713V32.2519C33.2237 31.7773 32.8983 31.3667 32.442 31.2657V31.2657ZM22.5683 35.1116C22.5683 38.4506 19.8962 41.1672 16.6119 41.1672C13.3276 41.1672 10.6554 38.4506 10.6554 35.1116C10.6554 31.7726 13.3276 29.056 16.6119 29.056C19.8962 29.056 22.5683 31.7726 22.5683 35.1116V35.1116Z" fill="#1386C9"/>
<path d="M51.0113 16.0237L47.7818 15.3304C47.501 14.4813 47.1532 13.653 46.7425 12.8552L48.5304 10.1087C48.8497 9.61798 48.7795 8.9737 48.3621 8.56149L43.331 3.59277C42.9136 3.18056 42.2612 3.11122 41.7643 3.42656L38.9834 5.19223C38.1755 4.78667 37.3369 4.44316 36.4771 4.16582L35.7751 0.976393C35.6497 0.406514 35.1387 0 34.5482 0H27.4334C26.8429 0 26.3319 0.406514 26.2066 0.976393L25.5045 4.16582C24.6447 4.44316 23.8061 4.78667 22.9983 5.19223L20.2173 3.42656C19.7204 3.11122 19.068 3.18056 18.6506 3.59277L13.6196 8.56149C13.2022 8.9737 13.132 9.61798 13.4513 10.1087L15.2391 12.8552C14.8284 13.653 14.4806 14.4813 14.1998 15.3304L10.9703 16.0237C10.3933 16.1478 9.98169 16.6522 9.98169 17.2354V24.262C9.98169 24.8452 10.3933 25.3495 10.9703 25.4736L14.1998 26.167C14.4806 27.0161 14.8284 27.8443 15.2391 28.6421L13.4513 31.3886C13.132 31.8794 13.2022 32.5236 13.6196 32.9359L18.6506 37.9046C19.068 38.3168 19.7204 38.3861 20.2173 38.0708L22.9983 36.3051C23.8061 36.7107 24.6447 37.0542 25.5045 37.3315L26.2066 40.521C26.3319 41.0908 26.8429 41.4973 27.4334 41.4973H34.5482C35.1387 41.4973 35.6497 41.0908 35.7751 40.521L36.4771 37.3315C37.3369 37.0542 38.1755 36.7107 38.9834 36.3051L41.7643 38.0708C42.2612 38.3861 42.9136 38.3171 43.331 37.9046L48.3621 32.9359C48.7795 32.5236 48.8497 31.8794 48.5304 31.3886L46.7425 28.6421C47.1532 27.8443 47.501 27.0161 47.7818 26.167L51.0113 25.4736C51.5883 25.3495 51.9999 24.8452 51.9999 24.262V17.2354C51.9999 16.6522 51.5883 16.1478 51.0113 16.0237V16.0237ZM38.524 20.7487C38.524 24.8509 35.1445 28.1884 30.9908 28.1884C26.8371 28.1884 23.4577 24.8509 23.4577 20.7487C23.4577 16.6465 26.8371 13.3089 30.9908 13.3089C35.1445 13.3089 38.524 16.6465 38.524 20.7487V20.7487Z" fill="#6B59D0" fill-opacity="0.8"/>
</svg>
