<svg width="32" height="24" viewBox="0 0 32 24" fill="none" xmlns="http://www.w3.org/2000/svg">
<mask id="mask0_2849_19487" style="mask-type:luminance" maskUnits="userSpaceOnUse" x="0" y="0" width="32" height="24">
<path d="M-1.04907e-06 24L0 0L32 1.39876e-06L32 24L-1.04907e-06 24Z" fill="white"/>
</mask>
<g mask="url(#mask0_2849_19487)">
<path d="M13.609 13.388C13.609 12.8432 13.3765 12.3208 12.9626 11.9356C12.5488 11.5504 11.9874 11.334 11.4021 11.334C10.8168 11.334 10.2555 11.5504 9.84161 11.9356C9.42774 12.3208 9.19523 12.8432 9.19523 13.388C9.19319 15.1125 8.45627 16.7657 7.14616 17.9852C5.83604 19.2045 4.05972 19.8905 2.2069 19.8925C1.6216 19.8925 1.06026 20.1089 0.646386 20.4941C0.232512 20.8792 -4.40075e-07 21.4017 -4.63885e-07 21.9464C-4.87701e-07 22.4913 0.232512 23.0138 0.646386 23.3989C1.06026 23.7841 1.6216 24.0005 2.2069 24.0005C5.22992 23.9973 8.12815 22.8782 10.2657 20.8887C12.4033 18.8991 13.6057 16.2016 13.609 13.388Z" fill="#EC6C0C"/>
<path d="M31.9999 2.05409C31.9999 1.50932 31.7674 0.986848 31.3535 0.601632C30.9395 0.216416 30.3783 5.23998e-07 29.7929 4.98409e-07C26.7698 0.00316369 23.8716 1.12229 21.7339 3.11184C19.5963 5.1014 18.3939 7.79889 18.3906 10.6125C18.3906 11.1573 18.6231 11.6797 19.0371 12.0649C19.4508 12.4501 20.0122 12.6665 20.5976 12.6665C21.1828 12.6665 21.7442 12.4501 22.158 12.0649C22.5719 11.6797 22.8044 11.1573 22.8044 10.6125C22.8065 8.88804 23.5435 7.23474 24.8535 6.01534C26.1638 4.79594 27.94 4.11 29.7929 4.10803C30.3781 4.10803 30.9395 3.89164 31.3535 3.50646C31.7674 3.12127 31.9999 2.59884 31.9999 2.05409Z" fill="#BE3818"/>
<path d="M32.0001 13.388C31.9953 12.8462 31.7607 12.3281 31.3473 11.9465C30.934 11.565 30.3754 11.3509 29.7931 11.3509C29.2111 11.3509 28.6524 11.565 28.2391 11.9465C27.8258 12.3281 27.5911 12.8462 27.5863 13.388C27.5863 14.2422 27.4055 15.088 27.0544 15.8771C26.7032 16.6663 26.1883 17.3833 25.5395 17.9873C24.8905 18.5913 24.12 19.0704 23.2722 19.3973C22.4243 19.7242 21.5154 19.8923 20.5977 19.8923C19.6799 19.8923 18.7712 19.7242 17.9233 19.3973C17.0755 19.0704 16.305 18.5913 15.656 17.9873C15.0071 17.3833 14.4924 16.6663 14.1412 15.8771C13.79 15.088 13.6092 14.2422 13.6092 13.388C13.6092 12.8432 13.3767 12.3208 12.9628 11.9356C12.5489 11.5504 11.9876 11.334 11.4023 11.334C10.817 11.334 10.2557 11.5504 9.84178 11.9356C9.4279 12.3208 9.19539 12.8432 9.19539 13.388C9.18993 14.7849 9.48083 16.169 10.0514 17.461C10.622 18.7532 11.461 19.9276 12.5204 20.9171C13.5797 21.9066 14.8385 22.6919 16.2247 23.2276C17.6107 23.7633 19.0968 24.0392 20.5977 24.0392C22.0986 24.0392 23.5848 23.7633 24.9708 23.2276C26.3569 22.6919 27.6158 21.9066 28.6751 20.9171C29.7345 19.9276 30.5736 18.7532 31.1441 17.461C31.7147 16.169 32.0055 14.7849 32.0001 13.388Z" fill="url(#paint0_linear_2849_19487)"/>
<path d="M10.4177 20.7436C9.35587 21.7738 8.08106 22.5935 6.66999 23.1531C5.25891 23.7128 3.74076 24.0009 2.2069 24.0002C1.6216 24.0002 1.06026 23.7838 0.646386 23.3986C0.232513 23.0135 -2.47702e-07 22.491 -2.23893e-07 21.9463C-2.00077e-07 21.4014 0.232513 20.879 0.646386 20.4938C1.06026 20.1086 1.6216 19.8922 2.2069 19.8922C3.39402 19.8916 4.56144 19.6097 5.59906 19.0729C6.63668 18.5362 7.51032 17.7623 8.13759 16.8242C8.59063 18.2663 9.36784 19.6023 10.4177 20.7436Z" fill="url(#paint1_linear_2849_19487)"/>
<path d="M22.8045 10.6129C22.8045 7.79829 21.6032 5.09898 19.4649 3.10879C17.3266 1.11857 14.4263 0.000488912 11.4023 0.00048878C8.3782 0.000488647 5.47799 1.11857 3.33965 3.10879C1.20131 5.09898 -3.40852e-07 7.79828 -4.63882e-07 10.6129C-4.87694e-07 11.1576 0.232512 11.6801 0.646385 12.0653C1.06026 12.4505 1.62159 12.6669 2.2069 12.6669C2.7922 12.6669 3.35353 12.4505 3.76742 12.0653C4.18129 11.6801 4.4138 11.1576 4.4138 10.6129C4.4138 9.7587 4.59455 8.91291 4.94576 8.12377C5.29697 7.33461 5.81174 6.61759 6.46067 6.0136C7.10962 5.40962 7.88001 4.93051 8.72791 4.60363C9.57578 4.27676 10.4845 4.10852 11.4023 4.10852C12.32 4.10852 13.2288 4.27676 14.0766 4.60363C14.9245 4.93051 15.6949 5.40962 16.3439 6.0136C16.9928 6.61759 17.5076 7.33462 17.8588 8.12377C18.2099 8.91291 18.3908 9.7587 18.3908 10.6129C18.3908 11.1576 18.6232 11.6801 19.0372 12.0653C19.451 12.4505 20.0123 12.6669 20.5976 12.6669C21.183 12.6669 21.7443 12.4505 22.1581 12.0653C22.5721 11.6801 22.8045 11.1576 22.8045 10.6129Z" fill="url(#paint2_linear_2849_19487)"/>
<path d="M21.582 3.25688C22.6439 2.22659 23.9186 1.40693 25.3298 0.847223C26.7409 0.287519 28.259 -0.000649021 29.793 7.06658e-05C30.0844 -0.00217288 30.3732 0.0492997 30.6432 0.151518C30.913 0.253736 31.1585 0.404679 31.3653 0.595634C31.5723 0.78659 31.7365 1.01378 31.8484 1.2641C31.9605 1.51442 32.0182 1.78292 32.0182 2.05408C32.0182 2.32527 31.9605 2.59377 31.8484 2.84408C31.7365 3.0944 31.5723 3.32159 31.3653 3.51254C31.1585 3.7035 30.913 3.85444 30.6432 3.95666C30.3732 4.05887 30.0844 4.11035 29.793 4.1081C28.6059 4.10865 27.4384 4.39062 26.4007 4.92741C25.363 5.4642 24.4894 6.23814 23.8621 7.17622C23.4091 5.73416 22.6318 4.39819 21.582 3.25688Z" fill="#E64A1A"/>
</g>
<defs>
<linearGradient id="paint0_linear_2849_19487" x1="32.0001" y1="17.6866" x2="9.19531" y2="17.6866" gradientUnits="userSpaceOnUse">
<stop stop-color="#E9592D"/>
<stop offset="1" stop-color="#F39519"/>
</linearGradient>
<linearGradient id="paint1_linear_2849_19487" x1="9.34466" y1="18.7689" x2="3.18684" y2="25.748" gradientUnits="userSpaceOnUse">
<stop offset="0.005" stop-color="#F39519"/>
<stop offset="0.146" stop-color="#F39519"/>
<stop offset="1" stop-color="#F39519"/>
</linearGradient>
<linearGradient id="paint2_linear_2849_19487" x1="22.8045" y1="6.33368" x2="-2.76833e-07" y2="6.33368" gradientUnits="userSpaceOnUse">
<stop stop-color="#E9592D"/>
<stop offset="1" stop-color="#F39519"/>
</linearGradient>
</defs>
</svg>
