<svg width="20" height="20" viewBox="0 0 20 20" fill="none" xmlns="http://www.w3.org/2000/svg">
<g clip-path="url(#clip0_2853_20064)">
<path d="M10.0002 4.16659C8.84644 4.16659 7.71863 4.5087 6.75934 5.14968C5.80005 5.79065 5.05238 6.7017 4.61087 7.7676C4.16936 8.8335 4.05384 10.0064 4.27892 11.1379C4.504 12.2695 5.05957 13.3089 5.87538 14.1247C6.69118 14.9405 7.73059 15.4961 8.86214 15.7212C9.9937 15.9462 11.1666 15.8307 12.2325 15.3892C13.2984 14.9477 14.2094 14.2 14.8504 13.2407C15.4914 12.2815 15.8335 11.1536 15.8335 9.99992C15.8335 8.45282 15.2189 6.96909 14.125 5.87513C13.031 4.78117 11.5473 4.16659 10.0002 4.16659V4.16659ZM10.0002 14.1666C9.17608 14.1666 8.3705 13.9222 7.68529 13.4644C7.00009 13.0065 6.46603 12.3558 6.15067 11.5944C5.8353 10.8331 5.75279 9.9953 5.91356 9.18704C6.07433 8.37879 6.47117 7.63636 7.05389 7.05364C7.63661 6.47092 8.37904 6.07408 9.18729 5.91331C9.99555 5.75254 10.8333 5.83506 11.5947 6.15042C12.356 6.46579 13.0068 6.99984 13.4646 7.68504C13.9225 8.37025 14.1668 9.17583 14.1668 9.99992C14.1668 11.105 13.7278 12.1648 12.9464 12.9462C12.165 13.7276 11.1052 14.1666 10.0002 14.1666V14.1666ZM10.0002 7.49992C9.50571 7.49992 9.02236 7.64654 8.61124 7.92124C8.20012 8.19595 7.87969 8.58639 7.69047 9.04321C7.50125 9.50003 7.45174 10.0027 7.5482 10.4876C7.64467 10.9726 7.88277 11.4181 8.2324 11.7677C8.58203 12.1173 9.02749 12.3554 9.51244 12.4519C9.99739 12.5483 10.5001 12.4988 10.9569 12.3096C11.4137 12.1204 11.8041 11.8 12.0788 11.3888C12.3535 10.9777 12.5002 10.4944 12.5002 9.99992C12.5002 9.33688 12.2368 8.70099 11.7679 8.23215C11.2991 7.76331 10.6632 7.49992 10.0002 7.49992ZM10.0002 10.8333C9.83535 10.8333 9.67423 10.7844 9.53719 10.6928C9.40015 10.6012 9.29334 10.4711 9.23027 10.3188C9.1672 10.1665 9.15069 9.99899 9.18285 9.83734C9.215 9.67569 9.29437 9.52721 9.41091 9.41066C9.52746 9.29412 9.67594 9.21475 9.83759 9.1826C9.99924 9.15044 10.1668 9.16695 10.3191 9.23002C10.4713 9.29309 10.6015 9.3999 10.6931 9.53694C10.7846 9.67398 10.8335 9.8351 10.8335 9.99992C10.8335 10.2209 10.7457 10.4329 10.5894 10.5892C10.4331 10.7455 10.2212 10.8333 10.0002 10.8333ZM10.0002 0.833252C8.18717 0.833252 6.41489 1.37087 4.90744 2.37811C3.39999 3.38536 2.22507 4.817 1.53127 6.49199C0.837468 8.16698 0.655937 10.0101 1.00964 11.7882C1.36333 13.5664 2.23637 15.1997 3.51836 16.4817C4.80034 17.7637 6.43368 18.6368 8.21184 18.9904C9.99 19.3441 11.8331 19.1626 13.5081 18.4688C15.1831 17.775 16.6147 16.6001 17.622 15.0926C18.6292 13.5852 19.1668 11.8129 19.1668 9.99992C19.1668 7.56877 18.2011 5.23719 16.482 3.51811C14.7629 1.79902 12.4313 0.833252 10.0002 0.833252V0.833252ZM10.0002 17.4999C8.51681 17.4999 7.06676 17.0601 5.83339 16.2359C4.60002 15.4118 3.63873 14.2405 3.07107 12.87C2.50341 11.4996 2.35489 9.9916 2.64428 8.53674C2.93367 7.08188 3.64797 5.74551 4.69687 4.69662C5.74576 3.64772 7.08213 2.93342 8.53699 2.64403C9.99185 2.35464 11.4998 2.50316 12.8703 3.07082C14.2407 3.63848 15.4121 4.59977 16.2362 5.83314C17.0603 7.06651 17.5002 8.51656 17.5002 9.99992C17.5002 11.989 16.71 13.8967 15.3035 15.3032C13.8969 16.7097 11.9893 17.4999 10.0002 17.4999V17.4999Z" fill="white"/>
</g>
<defs>
<clipPath id="clip0_2853_20064">
<rect width="20" height="20" fill="white"/>
</clipPath>
</defs>
</svg>
