<svg width="211" height="150" viewBox="0 0 211 150" fill="none" xmlns="http://www.w3.org/2000/svg">
<g clip-path="url(#clip0_2853_20078)">
<path fill-rule="evenodd" clip-rule="evenodd" d="M182.141 108.243C176.089 107.881 170.014 107.061 163.947 105.759C113.126 94.856 75.5794 52.8956 63.0696 0H60C72.5744 54.1985 110.927 97.4525 163.318 108.693C170.112 110.15 176.911 111.02 183.674 111.333C191.332 126.251 201.822 139.24 214.411 150H219.124C206.017 139.395 195.084 126.428 187.121 111.445C200.987 111.702 214.667 109.633 227.796 105.51C247.955 133.522 283.019 149.646 321.041 148.993V146.003C284.236 146.657 250.438 131.188 230.804 104.527C268.821 91.598 301.92 61.3996 321.041 20.674V13.3314C302.63 56.7881 268.395 88.8602 228.981 101.96C224.496 95.4046 220.843 88.2162 218.177 80.4624C216.725 76.2399 215.607 71.9697 214.809 67.6756C247.111 59.3704 275.549 34.4788 290.719 0H287.441C272.526 33.0143 245.175 56.6652 214.308 64.6919C210.963 42.5264 216.054 19.8757 227.834 0H224.362C212.835 20.1319 207.913 42.9685 211.376 65.4046C199.066 68.191 186.248 68.4952 173.476 65.928C171.361 43.5084 175.504 20.9243 184.91 0H181.621C172.523 20.7247 168.463 43.0316 170.395 65.2522C137.904 57.5296 112.945 32.4926 101.377 0H98.2067C110.022 34.1637 136.222 60.6137 170.709 68.4047C171.712 77.3144 173.687 86.1974 176.696 94.9462C178.271 99.5259 180.091 103.961 182.141 108.243ZM211.885 68.3797C199.538 71.1513 186.676 71.5026 173.812 69.0507C174.821 77.4239 176.71 85.7624 179.533 93.9707C181.247 98.9573 183.263 103.77 185.558 108.399C199.315 108.833 212.921 106.914 225.993 102.913C221.597 96.3484 217.999 89.1704 215.34 81.4379C213.855 77.1213 212.708 72.7608 211.885 68.3797Z" fill="white" fill-opacity="0.2"/>
</g>
<defs>
<clipPath id="clip0_2853_20078">
<rect width="210.667" height="150" fill="white"/>
</clipPath>
</defs>
</svg>
