<svg width="20" height="20" viewBox="0 0 20 20" fill="none" xmlns="http://www.w3.org/2000/svg">
<path d="M11.6666 15C11.8876 15 12.0996 14.9122 12.2558 14.756C12.4121 14.5997 12.4999 14.3877 12.4999 14.1667V12.5C12.4999 12.279 12.4121 12.0671 12.2558 11.9108C12.0996 11.7545 11.8876 11.6667 11.6666 11.6667C11.4456 11.6667 11.2336 11.7545 11.0773 11.9108C10.921 12.0671 10.8332 12.279 10.8332 12.5V14.1667C10.8332 14.3877 10.921 14.5997 11.0773 14.756C11.2336 14.9122 11.4456 15 11.6666 15ZM8.33324 15C8.55426 15 8.76622 14.9122 8.9225 14.756C9.07878 14.5997 9.16658 14.3877 9.16658 14.1667V12.5C9.16658 12.279 9.07878 12.0671 8.9225 11.9108C8.76622 11.7545 8.55426 11.6667 8.33324 11.6667C8.11223 11.6667 7.90027 11.7545 7.74399 11.9108C7.58771 12.0671 7.49991 12.279 7.49991 12.5V14.1667C7.49991 14.3877 7.58771 14.5997 7.74399 14.756C7.90027 14.9122 8.11223 15 8.33324 15ZM15.8332 5.00004H14.6832L13.2416 2.12504C13.1975 2.01925 13.1321 1.92369 13.0495 1.84432C12.9668 1.76494 12.8687 1.70347 12.7612 1.66374C12.6537 1.62402 12.5392 1.60688 12.4248 1.61342C12.3104 1.61995 12.1985 1.65001 12.0963 1.70172C11.994 1.75342 11.9035 1.82567 11.8304 1.91393C11.7573 2.0022 11.7032 2.10459 11.6715 2.2147C11.6398 2.32482 11.6311 2.4403 11.646 2.55392C11.661 2.66753 11.6992 2.77685 11.7582 2.87504L12.8166 5.00004H7.18324L8.24158 2.87504C8.32246 2.6808 8.32687 2.46315 8.25393 2.26578C8.18098 2.06842 8.03607 1.90596 7.84829 1.81101C7.66052 1.71607 7.44378 1.69568 7.24159 1.75393C7.0394 1.81217 6.86673 1.94475 6.75824 2.12504L5.31658 5.00004H4.16658C3.57757 5.009 3.01064 5.22567 2.56578 5.61182C2.12093 5.99798 1.82672 6.52881 1.73505 7.11072C1.64338 7.69262 1.76014 8.2882 2.06473 8.79242C2.36932 9.29664 2.84218 9.6771 3.39991 9.86671L4.01658 16.0834C4.07876 16.7022 4.36936 17.2756 4.83164 17.6916C5.29391 18.1077 5.89466 18.3365 6.51658 18.3334H13.4999C14.1218 18.3365 14.7226 18.1077 15.1848 17.6916C15.6471 17.2756 15.9377 16.7022 15.9999 16.0834L16.6166 9.86671C17.1755 9.67654 17.6491 9.29468 17.9535 8.78878C18.2579 8.28287 18.3734 7.68557 18.2796 7.10266C18.1857 6.51976 17.8886 5.98887 17.4409 5.60402C16.9931 5.21918 16.4236 5.00522 15.8332 5.00004V5.00004ZM14.3249 15.9167C14.3042 16.123 14.2073 16.3141 14.0532 16.4528C13.8991 16.5915 13.6989 16.6677 13.4916 16.6667H6.50824C6.30094 16.6677 6.10069 16.5915 5.9466 16.4528C5.7925 16.3141 5.69564 16.123 5.67491 15.9167L5.08324 10H14.9166L14.3249 15.9167ZM15.8332 8.33338H4.16658C3.94556 8.33338 3.7336 8.24558 3.57732 8.0893C3.42104 7.93302 3.33324 7.72106 3.33324 7.50004C3.33324 7.27903 3.42104 7.06707 3.57732 6.91079C3.7336 6.75451 3.94556 6.66671 4.16658 6.66671H15.8332C16.0543 6.66671 16.2662 6.75451 16.4225 6.91079C16.5788 7.06707 16.6666 7.27903 16.6666 7.50004C16.6666 7.72106 16.5788 7.93302 16.4225 8.0893C16.2662 8.24558 16.0543 8.33338 15.8332 8.33338Z" fill="white"/>
</svg>
