<svg width="20" height="20" viewBox="0 0 20 20" fill="none" xmlns="http://www.w3.org/2000/svg">
<path d="M9.99989 9.16675C9.77887 9.16675 9.56691 9.25455 9.41063 9.41083C9.25435 9.56711 9.16656 9.77907 9.16656 10.0001V12.5001C9.16656 12.7211 9.25435 12.9331 9.41063 13.0893C9.56691 13.2456 9.77887 13.3334 9.99989 13.3334C10.2209 13.3334 10.4329 13.2456 10.5891 13.0893C10.7454 12.9331 10.8332 12.7211 10.8332 12.5001V10.0001C10.8332 9.77907 10.7454 9.56711 10.5891 9.41083C10.4329 9.25455 10.2209 9.16675 9.99989 9.16675ZM9.99989 6.66675C9.83507 6.66675 9.67395 6.71562 9.53691 6.80719C9.39987 6.89876 9.29306 7.02891 9.22999 7.18118C9.16692 7.33345 9.15041 7.50101 9.18257 7.66266C9.21472 7.82431 9.29409 7.97279 9.41063 8.08934C9.52718 8.20588 9.67566 8.28525 9.83731 8.3174C9.99896 8.34956 10.1665 8.33305 10.3188 8.26998C10.4711 8.20691 10.6012 8.1001 10.6928 7.96306C10.7843 7.82602 10.8332 7.6649 10.8332 7.50008C10.8332 7.27907 10.7454 7.06711 10.5891 6.91083C10.4329 6.75455 10.2209 6.66675 9.99989 6.66675ZM9.99989 1.66675C8.90554 1.66675 7.82191 1.8823 6.81086 2.30109C5.79981 2.71987 4.88115 3.3337 4.10733 4.10752C2.54453 5.67033 1.66656 7.78994 1.66656 10.0001C1.65927 11.9244 2.32555 13.7905 3.54989 15.2751L1.88322 16.9417C1.76759 17.0589 1.68926 17.2077 1.65812 17.3694C1.62697 17.5311 1.64441 17.6983 1.70822 17.8501C1.77744 18 1.88964 18.126 2.03059 18.2121C2.17155 18.2981 2.33489 18.3404 2.49989 18.3334H9.99989C12.21 18.3334 14.3296 17.4554 15.8924 15.8926C17.4552 14.3298 18.3332 12.2102 18.3332 10.0001C18.3332 7.78994 17.4552 5.67033 15.8924 4.10752C14.3296 2.54472 12.21 1.66675 9.99989 1.66675V1.66675ZM9.99989 16.6667H4.50822L5.28322 15.8917C5.36196 15.8146 5.4246 15.7225 5.46752 15.621C5.51043 15.5194 5.53276 15.4103 5.53322 15.3001C5.53009 15.0803 5.44023 14.8706 5.28322 14.7167C4.19204 13.6268 3.51253 12.1922 3.36046 10.6574C3.20839 9.12262 3.59317 7.58259 4.44924 6.29968C5.30531 5.01678 6.57971 4.07038 8.05532 3.62173C9.53092 3.17307 11.1164 3.24992 12.5417 3.83918C13.967 4.42843 15.1439 5.49364 15.8719 6.85332C16.5999 8.213 16.8339 9.78303 16.5342 11.2959C16.2344 12.8088 15.4193 14.171 14.2278 15.1503C13.0364 16.1296 11.5422 16.6655 9.99989 16.6667V16.6667Z" fill="white"/>
</svg>
