<svg width="99" height="32" viewBox="0 0 99 32" fill="none" xmlns="http://www.w3.org/2000/svg">
<g clip-path="url(#clip0_2853_20037)">
<mask id="mask0_2853_20037" style="mask-type:luminance" maskUnits="userSpaceOnUse" x="0" y="0" width="32" height="32">
<path d="M32 0H0V32H32V0Z" fill="white"/>
</mask>
<g mask="url(#mask0_2853_20037)">
<path d="M4.7998 9.19141C4.7998 6.76613 6.76588 4.80005 9.19116 4.80005H22.8084C25.2337 4.80005 27.1998 6.76613 27.1998 9.19141V22.8087C27.1998 25.234 25.2337 27.2 22.8084 27.2H9.19116C6.76588 27.2 4.7998 25.234 4.7998 22.8087V9.19141Z" fill="#73B06F"/>
<path fill-rule="evenodd" clip-rule="evenodd" d="M9.19132 0.959961H22.8086C27.3547 0.959961 31.04 4.64525 31.04 9.19132V22.8086C31.04 27.3547 27.3547 31.04 22.8086 31.04H9.19132C4.64525 31.04 0.959961 27.3547 0.959961 22.8086V9.19132C0.959961 4.64525 4.64525 0.959961 9.19132 0.959961ZM9.19132 4.79996C6.76604 4.79996 4.79996 6.76604 4.79996 9.19132V22.8086C4.79996 25.2339 6.76604 27.2 9.19132 27.2H22.8086C25.2339 27.2 27.2 25.2339 27.2 22.8086V9.19132C27.2 6.76604 25.2339 4.79996 22.8086 4.79996H9.19132Z" fill="#E3ECE6"/>
<path d="M23.1176 20.1046C22.9996 19.9108 22.8453 19.7433 22.6638 19.6118C22.4823 19.4803 22.2771 19.3873 22.0604 19.3385C21.2311 19.1396 20.512 18.6102 20.0599 17.8661C19.608 17.122 19.46 16.2236 19.6482 15.3673C19.7207 15.0364 19.6966 14.6907 19.5791 14.3738C19.4617 14.0568 19.256 13.7828 18.9881 13.586C18.72 13.3892 18.4016 13.2785 18.0728 13.2677C17.744 13.257 17.4195 13.3466 17.1399 13.5255C16.8604 13.7044 16.6383 13.9644 16.5015 14.273C16.3649 14.5816 16.3196 14.925 16.3715 15.26C16.4234 15.5951 16.5701 15.9069 16.7932 16.1562C17.0163 16.4055 17.3059 16.5812 17.6256 16.6614C18.0392 16.7576 18.4302 16.937 18.7764 17.1894C19.1227 17.4418 19.4171 17.7622 19.643 18.1322C19.8689 18.5021 20.0218 18.9145 20.0928 19.3455C20.1639 19.7766 20.1518 20.2179 20.0572 20.644C20.0012 20.9188 20.0112 21.2035 20.0864 21.4734C20.1614 21.7432 20.2995 21.99 20.4883 22.1923C20.6771 22.3946 20.9109 22.5461 21.1696 22.6338C21.4282 22.7215 21.7036 22.7425 21.972 22.6953C22.2403 22.648 22.4934 22.5337 22.7091 22.3624C22.9248 22.1912 23.0966 21.9681 23.2096 21.7126C23.3225 21.4572 23.3732 21.1771 23.3572 20.8968C23.3411 20.6166 23.2589 20.3446 23.1176 20.1046Z" fill="#E3ECE6"/>
<path d="M12.854 18.1936C13.146 18.358 13.479 18.4286 13.8102 18.3964C14.1414 18.3642 14.4557 18.2307 14.7129 18.0131C14.9699 17.7953 15.1582 17.5034 15.2533 17.1746C15.3484 16.8458 15.3461 16.4953 15.2466 16.1678C15.1206 15.7504 15.0757 15.3113 15.1145 14.8759C15.1534 14.4405 15.2751 14.0172 15.4729 13.6305C15.6705 13.2437 15.9404 12.9009 16.2668 12.6219C16.5932 12.3429 16.9698 12.133 17.375 12.0044C17.6892 11.9029 17.9674 11.7077 18.1744 11.4436C18.3813 11.1794 18.5079 10.8581 18.5382 10.5198C18.5685 10.1817 18.5011 9.84175 18.3445 9.543C18.188 9.24418 17.9492 8.99983 17.6583 8.84066C17.3674 8.68149 17.0373 8.61461 16.7097 8.64847C16.382 8.68232 16.0713 8.81531 15.8168 9.03087C15.5623 9.24635 15.3753 9.53467 15.2792 9.8596C15.1832 10.1845 15.1826 10.5313 15.2773 10.8567C15.5258 11.6964 15.4418 12.6036 15.0434 13.3795C14.6451 14.1555 13.9649 14.7372 13.1517 14.9971C12.8307 15.0931 12.545 15.2863 12.3316 15.5517C12.1183 15.817 11.987 16.1424 11.955 16.4855C11.9229 16.8286 11.9914 17.1738 12.1518 17.4762C12.312 17.7788 12.5567 18.0247 12.854 18.1821V18.1936Z" fill="#E3ECE6"/>
<path d="M17.15 17.9124C16.928 17.9204 16.7098 17.9741 16.5082 18.0701C16.3066 18.1662 16.1257 18.3028 15.9759 18.4719C15.3948 19.1129 14.5913 19.4906 13.7409 19.5223C12.8906 19.5541 12.0627 19.2373 11.4382 18.6413C11.2769 18.4851 11.0871 18.3636 10.8798 18.2838C10.6725 18.2039 10.4519 18.1675 10.2308 18.1764C9.95868 18.1896 9.69378 18.2714 9.45929 18.4144C9.22485 18.5575 9.02793 18.7577 8.88572 18.9973C8.74345 19.237 8.66025 19.5089 8.64335 19.7893C8.62645 20.0698 8.67637 20.3502 8.78876 20.6062C8.90114 20.8621 9.07253 21.0859 9.28802 21.2578C9.50351 21.4297 9.7565 21.5446 10.0249 21.5926C10.2934 21.6404 10.5692 21.6198 10.8281 21.5325C11.0871 21.4452 11.3214 21.2939 11.5106 21.0917C11.7984 20.7703 12.1448 20.5106 12.53 20.3276C12.9152 20.1446 13.3317 20.0416 13.7555 20.0249C14.1794 20.0081 14.6023 20.0777 15 20.2297C15.3977 20.3818 15.7625 20.6132 16.0733 20.9109C16.2756 21.0995 16.5197 21.234 16.7842 21.3028C17.0487 21.3716 17.3254 21.3725 17.5903 21.3054C17.8551 21.2384 18.1001 21.1054 18.3036 20.9182C18.5071 20.731 18.6631 20.4951 18.7578 20.2313C18.8525 19.9676 18.8831 19.6839 18.8469 19.4051C18.8107 19.1263 18.7089 18.8609 18.5502 18.6321C18.3916 18.4033 18.181 18.218 17.9369 18.0926C17.6928 17.9671 17.4226 17.9053 17.15 17.9124Z" fill="#E3ECE6"/>
</g>
</g>
<path d="M41.52 23.5V9.5H43.82V23.5H41.52ZM50.42 23.5V9.5H52.72V23.5H50.42ZM43.1 17.3V15.2H50.92V17.3H43.1ZM57.1383 23.5V21.5H61.1583C61.8649 21.5 62.4116 21.28 62.7983 20.84C63.1849 20.4 63.3783 19.8933 63.3783 19.32C63.3783 18.9333 63.2916 18.5733 63.1183 18.24C62.9449 17.9067 62.6916 17.64 62.3583 17.44C62.0249 17.24 61.6249 17.14 61.1583 17.14H57.1383V15.14H60.8183C61.4183 15.14 61.8983 14.9867 62.2583 14.68C62.6183 14.3733 62.7983 13.92 62.7983 13.32C62.7983 12.72 62.6183 12.2667 62.2583 11.96C61.8983 11.6533 61.4183 11.5 60.8183 11.5H57.1383V9.5H60.8783C61.8249 9.5 62.6116 9.67333 63.2383 10.02C63.8649 10.3667 64.3316 10.8133 64.6383 11.36C64.9449 11.9067 65.0983 12.4933 65.0983 13.12C65.0983 13.8533 64.8916 14.5 64.4783 15.06C64.0783 15.62 63.4849 16.0733 62.6983 16.42L62.8783 15.7C63.7583 16.06 64.4449 16.5667 64.9383 17.22C65.4316 17.8733 65.6783 18.64 65.6783 19.52C65.6783 20.24 65.4983 20.9 65.1383 21.5C64.7916 22.1 64.2716 22.5867 63.5783 22.96C62.8983 23.32 62.0583 23.5 61.0583 23.5H57.1383ZM55.5583 23.5V9.5H57.8583V23.5H55.5583ZM71.5197 23.7C70.653 23.7 69.8664 23.48 69.1597 23.04C68.4664 22.6 67.913 22.0067 67.4997 21.26C67.0997 20.5 66.8997 19.6533 66.8997 18.72C66.8997 17.7733 67.0997 16.9267 67.4997 16.18C67.913 15.42 68.4664 14.82 69.1597 14.38C69.8664 13.9267 70.653 13.7 71.5197 13.7C72.253 13.7 72.8997 13.86 73.4597 14.18C74.033 14.4867 74.4864 14.9133 74.8197 15.46C75.153 16.0067 75.3197 16.6267 75.3197 17.32V20.08C75.3197 20.7733 75.153 21.3933 74.8197 21.94C74.4997 22.4867 74.053 22.92 73.4797 23.24C72.9064 23.5467 72.253 23.7 71.5197 23.7ZM71.8797 21.62C72.693 21.62 73.3464 21.3467 73.8397 20.8C74.3464 20.2533 74.5997 19.5533 74.5997 18.7C74.5997 18.1267 74.4864 17.62 74.2597 17.18C74.033 16.74 73.713 16.4 73.2997 16.16C72.8997 15.9067 72.4264 15.78 71.8797 15.78C71.3464 15.78 70.873 15.9067 70.4597 16.16C70.0597 16.4 69.7397 16.74 69.4997 17.18C69.273 17.62 69.1597 18.1267 69.1597 18.7C69.1597 19.2733 69.273 19.78 69.4997 20.22C69.7397 20.66 70.0597 21.0067 70.4597 21.26C70.873 21.5 71.3464 21.62 71.8797 21.62ZM74.4597 23.5V20.92L74.8397 18.58L74.4597 16.26V13.9H76.6597V23.5H74.4597ZM85.4813 23.5V17.96C85.4813 17.32 85.2746 16.7933 84.8613 16.38C84.4613 15.9667 83.9413 15.76 83.3013 15.76C82.8746 15.76 82.4946 15.8533 82.1613 16.04C81.8279 16.2267 81.5679 16.4867 81.3813 16.82C81.1946 17.1533 81.1013 17.5333 81.1013 17.96L80.2413 17.48C80.2413 16.7467 80.4013 16.1 80.7213 15.54C81.0413 14.9667 81.4813 14.52 82.0413 14.2C82.6146 13.8667 83.2546 13.7 83.9613 13.7C84.6813 13.7 85.3213 13.8867 85.8813 14.26C86.4413 14.62 86.8813 15.0933 87.2013 15.68C87.5213 16.2533 87.6813 16.8533 87.6813 17.48V23.5H85.4813ZM78.9013 23.5V13.9H81.1013V23.5H78.9013ZM95.8169 23.5L91.7569 18.6L95.7969 13.9H98.4169L93.7769 19.18L93.8769 17.92L98.6169 23.5H95.8169ZM89.7169 23.5V9.1H91.9169V23.5H89.7169Z" fill="white"/>
<defs>
<clipPath id="clip0_2853_20037">
<rect width="32" height="32" fill="white"/>
</clipPath>
</defs>
</svg>
