<svg width="20" height="20" viewBox="0 0 20 20" fill="none" xmlns="http://www.w3.org/2000/svg">
<path d="M3.3335 10.0001C3.3335 10.2211 3.42129 10.4331 3.57757 10.5893C3.73385 10.7456 3.94582 10.8334 4.16683 10.8334H10.4918L8.57516 12.7417C8.49706 12.8192 8.43506 12.9114 8.39275 13.0129C8.35045 13.1145 8.32866 13.2234 8.32866 13.3334C8.32866 13.4434 8.35045 13.5523 8.39275 13.6539C8.43506 13.7554 8.49706 13.8476 8.57516 13.9251C8.65263 14.0032 8.7448 14.0652 8.84635 14.1075C8.9479 14.1498 9.05682 14.1716 9.16683 14.1716C9.27684 14.1716 9.38576 14.1498 9.48731 14.1075C9.58886 14.0652 9.68103 14.0032 9.7585 13.9251L13.0918 10.5917C13.1677 10.5125 13.2272 10.419 13.2668 10.3167C13.3502 10.1139 13.3502 9.8863 13.2668 9.68342C13.2272 9.58112 13.1677 9.48767 13.0918 9.40842L9.7585 6.07508C9.6808 5.99738 9.58856 5.93575 9.48704 5.8937C9.38552 5.85165 9.27671 5.83001 9.16683 5.83001C9.05695 5.83001 8.94814 5.85165 8.84662 5.8937C8.7451 5.93575 8.65286 5.99738 8.57516 6.07508C8.49746 6.15278 8.43583 6.24502 8.39378 6.34654C8.35173 6.44806 8.33009 6.55687 8.33009 6.66675C8.33009 6.77663 8.35173 6.88544 8.39378 6.98696C8.43583 7.08847 8.49746 7.18072 8.57516 7.25842L10.4918 9.16675H4.16683C3.94582 9.16675 3.73385 9.25455 3.57757 9.41083C3.42129 9.56711 3.3335 9.77907 3.3335 10.0001V10.0001ZM14.1668 1.66675H5.8335C5.17045 1.66675 4.53457 1.93014 4.06573 2.39898C3.59689 2.86782 3.3335 3.50371 3.3335 4.16675V6.66675C3.3335 6.88776 3.42129 7.09972 3.57757 7.256C3.73385 7.41228 3.94582 7.50008 4.16683 7.50008C4.38784 7.50008 4.5998 7.41228 4.75608 7.256C4.91237 7.09972 5.00016 6.88776 5.00016 6.66675V4.16675C5.00016 3.94573 5.08796 3.73377 5.24424 3.57749C5.40052 3.42121 5.61248 3.33341 5.8335 3.33341H14.1668C14.3878 3.33341 14.5998 3.42121 14.7561 3.57749C14.9124 3.73377 15.0002 3.94573 15.0002 4.16675V15.8334C15.0002 16.0544 14.9124 16.2664 14.7561 16.4227C14.5998 16.579 14.3878 16.6667 14.1668 16.6667H5.8335C5.61248 16.6667 5.40052 16.579 5.24424 16.4227C5.08796 16.2664 5.00016 16.0544 5.00016 15.8334V13.3334C5.00016 13.1124 4.91237 12.9004 4.75608 12.7442C4.5998 12.5879 4.38784 12.5001 4.16683 12.5001C3.94582 12.5001 3.73385 12.5879 3.57757 12.7442C3.42129 12.9004 3.3335 13.1124 3.3335 13.3334V15.8334C3.3335 16.4965 3.59689 17.1323 4.06573 17.6012C4.53457 18.07 5.17045 18.3334 5.8335 18.3334H14.1668C14.8299 18.3334 15.4658 18.07 15.9346 17.6012C16.4034 17.1323 16.6668 16.4965 16.6668 15.8334V4.16675C16.6668 3.50371 16.4034 2.86782 15.9346 2.39898C15.4658 1.93014 14.8299 1.66675 14.1668 1.66675Z" fill="white"/>
</svg>
