<svg width="20" height="20" viewBox="0 0 20 20" fill="none" xmlns="http://www.w3.org/2000/svg">
<path d="M17.7665 7.95842L16.1915 7.43342L16.9332 5.95008C17.0084 5.79482 17.0335 5.62005 17.0051 5.44989C16.9768 5.27973 16.8963 5.12257 16.7748 5.00008L14.9998 3.22508C14.8767 3.10182 14.718 3.02026 14.5461 2.99186C14.3742 2.96345 14.1977 2.98965 14.0415 3.06675L12.5582 3.80842L12.0332 2.23342C11.9777 2.06924 11.8725 1.92644 11.7321 1.82487C11.5917 1.72331 11.4231 1.66804 11.2498 1.66675H8.74984C8.57514 1.6663 8.40471 1.72077 8.26265 1.82245C8.12059 1.92414 8.01408 2.0679 7.95817 2.23342L7.43317 3.80842L5.94984 3.06675C5.79458 2.99157 5.61981 2.96642 5.44965 2.99478C5.27949 3.02314 5.12233 3.10361 4.99984 3.22508L3.22484 5.00008C3.10158 5.12322 3.02001 5.2819 2.99161 5.4538C2.96321 5.6257 2.9894 5.80218 3.06651 5.95842L3.80817 7.44175L2.23317 7.96675C2.069 8.0222 1.92619 8.12744 1.82463 8.26784C1.72307 8.40824 1.66779 8.57681 1.66651 8.75008V11.2501C1.66606 11.4248 1.72052 11.5952 1.82221 11.7373C1.92389 11.8793 2.06766 11.9858 2.23317 12.0418L3.80817 12.5668L3.06651 14.0501C2.99132 14.2053 2.96618 14.3801 2.99454 14.5503C3.0229 14.7204 3.10337 14.8776 3.22484 15.0001L4.99984 16.7751C5.12298 16.8983 5.28165 16.9799 5.45355 17.0083C5.62545 17.0367 5.80193 17.0105 5.95817 16.9334L7.44151 16.1918L7.96651 17.7668C8.02241 17.9323 8.12892 18.076 8.27098 18.1777C8.41304 18.2794 8.58347 18.3339 8.75817 18.3334H11.2582C11.4329 18.3339 11.6033 18.2794 11.7454 18.1777C11.8874 18.076 11.9939 17.9323 12.0498 17.7668L12.5748 16.1918L14.0582 16.9334C14.2124 17.0067 14.3855 17.0308 14.5539 17.0025C14.7224 16.9742 14.878 16.8948 14.9998 16.7751L16.7748 15.0001C16.8981 14.8769 16.9797 14.7183 17.0081 14.5464C17.0365 14.3745 17.0103 14.198 16.9332 14.0418L16.1915 12.5584L17.7665 12.0334C17.9307 11.978 18.0735 11.8727 18.1751 11.7323C18.2766 11.5919 18.3319 11.4234 18.3332 11.2501V8.75008C18.3336 8.57538 18.2792 8.40495 18.1775 8.26289C18.0758 8.12083 17.932 8.01432 17.7665 7.95842ZM16.6665 10.6501L15.6665 10.9834C15.4366 11.058 15.2256 11.1817 15.0482 11.346C14.8709 11.5103 14.7314 11.7112 14.6394 11.9347C14.5474 12.1583 14.5052 12.3992 14.5156 12.6407C14.5261 12.8823 14.5889 13.1186 14.6998 13.3334L15.1748 14.2834L14.2582 15.2001L13.3332 14.7001C13.1195 14.5936 12.8854 14.5343 12.6468 14.5262C12.4081 14.518 12.1706 14.5613 11.9501 14.6529C11.7296 14.7446 11.5314 14.8825 11.3689 15.0574C11.2064 15.2324 11.0834 15.4402 11.0082 15.6668L10.6748 16.6668H9.34984L9.01651 15.6668C8.94192 15.4368 8.81819 15.2258 8.65392 15.0485C8.48965 14.8711 8.28876 14.7316 8.06519 14.6396C7.84162 14.5477 7.60072 14.5054 7.35919 14.5159C7.11767 14.5263 6.88131 14.5892 6.66651 14.7001L5.71651 15.1751L4.79984 14.2584L5.29984 13.3334C5.41075 13.1186 5.47361 12.8823 5.48404 12.6407C5.49448 12.3992 5.45225 12.1583 5.36029 11.9347C5.26832 11.7112 5.12882 11.5103 4.95146 11.346C4.7741 11.1817 4.56313 11.058 4.33317 10.9834L3.33317 10.6501V9.35008L4.33317 9.01675C4.56313 8.94216 4.7741 8.81844 4.95146 8.65417C5.12882 8.48989 5.26832 8.28901 5.36029 8.06543C5.45225 7.84186 5.49448 7.60096 5.48404 7.35944C5.47361 7.11792 5.41075 6.88155 5.29984 6.66675L4.82484 5.74175L5.74151 4.82508L6.66651 5.30008C6.88131 5.411 7.11767 5.47385 7.35919 5.48429C7.60072 5.49473 7.84162 5.4525 8.06519 5.36053C8.28876 5.26857 8.48965 5.12907 8.65392 4.95171C8.81819 4.77434 8.94192 4.56337 9.01651 4.33342L9.34984 3.33342H10.6498L10.9832 4.33342C11.0578 4.56337 11.1815 4.77434 11.3458 4.95171C11.51 5.12907 11.7109 5.26857 11.9345 5.36053C12.1581 5.4525 12.399 5.49473 12.6405 5.48429C12.882 5.47385 13.1184 5.411 13.3332 5.30008L14.2832 4.82508L15.1998 5.74175L14.6998 6.66675C14.5934 6.88045 14.5341 7.11454 14.5259 7.35316C14.5178 7.59178 14.561 7.82936 14.6527 8.04982C14.7443 8.27028 14.8823 8.46847 15.0572 8.63098C15.2321 8.79349 15.4399 8.91653 15.6665 8.99175L16.6665 9.32508V10.6501ZM9.99984 6.66675C9.34057 6.66675 8.6961 6.86225 8.14794 7.22852C7.59978 7.59479 7.17253 8.11539 6.92024 8.72447C6.66795 9.33356 6.60194 10.0038 6.73056 10.6504C6.85917 11.297 7.17664 11.8909 7.64282 12.3571C8.10899 12.8233 8.70294 13.1408 9.34954 13.2694C9.99614 13.398 10.6664 13.332 11.2755 13.0797C11.8845 12.8274 12.4051 12.4001 12.7714 11.852C13.1377 11.3038 13.3332 10.6594 13.3332 10.0001C13.3332 9.11603 12.982 8.26818 12.3569 7.64306C11.7317 7.01794 10.8839 6.66675 9.99984 6.66675V6.66675ZM9.99984 11.6668C9.6702 11.6668 9.34797 11.569 9.07389 11.3859C8.79981 11.2027 8.58619 10.9424 8.46004 10.6379C8.33389 10.3333 8.30089 9.99824 8.3652 9.67493C8.42951 9.35163 8.58824 9.05466 8.82133 8.82157C9.05442 8.58849 9.35139 8.42975 9.67469 8.36544C9.99799 8.30113 10.3331 8.33414 10.6376 8.46028C10.9422 8.58643 11.2025 8.80005 11.3856 9.07413C11.5688 9.34822 11.6665 9.67045 11.6665 10.0001C11.6665 10.4421 11.4909 10.866 11.1784 11.1786C10.8658 11.4912 10.4419 11.6668 9.99984 11.6668Z" fill="white"/>
</svg>
