<svg width="20" height="20" viewBox="0 0 20 20" fill="none" xmlns="http://www.w3.org/2000/svg">
<path d="M18.3332 6.5166C18.3372 6.46389 18.3372 6.41096 18.3332 6.35826V6.35826L16.6665 2.1916C16.6014 2.02689 16.4855 1.88721 16.3357 1.79281C16.1859 1.69841 16.0098 1.6542 15.8332 1.6666H4.1665C3.99961 1.66643 3.8365 1.71639 3.69832 1.81C3.56014 1.9036 3.45326 2.03654 3.3915 2.1916L1.72484 6.35826C1.72082 6.41096 1.72082 6.46389 1.72484 6.5166C1.69715 6.56298 1.67743 6.61369 1.6665 6.6666V6.6666C1.67578 7.24263 1.83419 7.80643 2.12629 8.30299C2.41839 8.79956 2.8342 9.21195 3.33317 9.49993V17.4999C3.33317 17.7209 3.42097 17.9329 3.57725 18.0892C3.73353 18.2455 3.94549 18.3333 4.1665 18.3333H15.8332C16.0542 18.3333 16.2661 18.2455 16.4224 18.0892C16.5787 17.9329 16.6665 17.7209 16.6665 17.4999V9.53326C17.1703 9.24241 17.5892 8.82478 17.8816 8.32188C18.174 7.81897 18.3297 7.24831 18.3332 6.6666V6.6666C18.341 6.6169 18.341 6.56629 18.3332 6.5166V6.5166ZM10.8332 16.6666H9.1665V13.3333H10.8332V16.6666ZM14.9998 16.6666H12.4998V12.4999C12.4998 12.2789 12.412 12.067 12.2558 11.9107C12.0995 11.7544 11.8875 11.6666 11.6665 11.6666H8.33317C8.11216 11.6666 7.9002 11.7544 7.74392 11.9107C7.58764 12.067 7.49984 12.2789 7.49984 12.4999V16.6666H4.99984V9.99993C5.47439 9.99725 5.94291 9.89327 6.37405 9.69495C6.80518 9.49663 7.18901 9.20853 7.49984 8.84993C7.81264 9.20462 8.19734 9.48869 8.62838 9.68326C9.05941 9.87784 9.52692 9.97847 9.99984 9.97847C10.4728 9.97847 10.9403 9.87784 11.3713 9.68326C11.8023 9.48869 12.187 9.20462 12.4998 8.84993C12.8107 9.20853 13.1945 9.49663 13.6256 9.69495C14.0568 9.89327 14.5253 9.99725 14.9998 9.99993V16.6666ZM14.9998 8.33326C14.5578 8.33326 14.1339 8.15767 13.8213 7.84511C13.5088 7.53255 13.3332 7.10862 13.3332 6.6666C13.3332 6.44558 13.2454 6.23362 13.0891 6.07734C12.9328 5.92106 12.7209 5.83326 12.4998 5.83326C12.2788 5.83326 12.0669 5.92106 11.9106 6.07734C11.7543 6.23362 11.6665 6.44558 11.6665 6.6666C11.6665 7.10862 11.4909 7.53255 11.1783 7.84511C10.8658 8.15767 10.4419 8.33326 9.99984 8.33326C9.55781 8.33326 9.13389 8.15767 8.82133 7.84511C8.50877 7.53255 8.33317 7.10862 8.33317 6.6666C8.33317 6.44558 8.24537 6.23362 8.08909 6.07734C7.93281 5.92106 7.72085 5.83326 7.49984 5.83326C7.27882 5.83326 7.06686 5.92106 6.91058 6.07734C6.7543 6.23362 6.6665 6.44558 6.6665 6.6666C6.67471 6.88546 6.63973 7.10381 6.56355 7.30916C6.48738 7.51451 6.3715 7.70284 6.22254 7.86341C6.07358 8.02398 5.89445 8.15364 5.69539 8.24498C5.49632 8.33632 5.28121 8.38755 5.06234 8.39576C4.62031 8.41234 4.1898 8.25264 3.86552 7.9518C3.70495 7.80284 3.5753 7.62371 3.48396 7.42464C3.39262 7.22557 3.34138 7.01046 3.33317 6.79159L4.73317 3.33326H15.2665L16.6665 6.79159C16.6349 7.21161 16.4455 7.60409 16.1363 7.8901C15.8271 8.17611 15.421 8.33445 14.9998 8.33326V8.33326Z" fill="white"/>
</svg>
