<svg width="20" height="20" viewBox="0 0 20 20" fill="none" xmlns="http://www.w3.org/2000/svg">
<path d="M18.0915 6.07511C18.014 5.997 17.9218 5.93501 17.8203 5.8927C17.7187 5.8504 17.6098 5.82861 17.4998 5.82861C17.3898 5.82861 17.2809 5.8504 17.1793 5.8927C17.0778 5.93501 16.9856 5.997 16.9081 6.07511L11.6665 11.3251L8.09145 7.74178C8.01398 7.66367 7.92182 7.60168 7.82027 7.55937C7.71872 7.51706 7.6098 7.49528 7.49979 7.49528C7.38978 7.49528 7.28085 7.51706 7.17931 7.55937C7.07776 7.60168 6.98559 7.66367 6.90812 7.74178L1.90812 12.7418C1.83001 12.8192 1.76802 12.9114 1.72571 13.013C1.6834 13.1145 1.66162 13.2234 1.66162 13.3334C1.66162 13.4435 1.6834 13.5524 1.72571 13.6539C1.76802 13.7555 1.83001 13.8476 1.90812 13.9251C1.98559 14.0032 2.07776 14.0652 2.17931 14.1075C2.28086 14.1498 2.38978 14.1716 2.49979 14.1716C2.6098 14.1716 2.71872 14.1498 2.82027 14.1075C2.92182 14.0652 3.01398 14.0032 3.09145 13.9251L7.49979 9.50844L11.0748 13.0918C11.1523 13.1699 11.2444 13.2319 11.346 13.2742C11.4475 13.3165 11.5564 13.3383 11.6665 13.3383C11.7765 13.3383 11.8854 13.3165 11.9869 13.2742C12.0885 13.2319 12.1807 13.1699 12.2581 13.0918L18.0915 7.25845C18.1696 7.18098 18.2316 7.08881 18.2739 6.98726C18.3162 6.88571 18.338 6.77679 18.338 6.66678C18.338 6.55677 18.3162 6.44785 18.2739 6.3463C18.2316 6.24475 18.1696 6.15258 18.0915 6.07511V6.07511Z" fill="white"/>
</svg>
