<svg width="20" height="20" viewBox="0 0 20 20" fill="none" xmlns="http://www.w3.org/2000/svg">
<path d="M7.49984 8.33341C7.27882 8.33341 7.06686 8.42121 6.91058 8.57749C6.7543 8.73377 6.6665 8.94573 6.6665 9.16675V10.8334C6.6665 11.0544 6.7543 11.2664 6.91058 11.4227C7.06686 11.579 7.27882 11.6667 7.49984 11.6667C7.72085 11.6667 7.93281 11.579 8.08909 11.4227C8.24537 11.2664 8.33317 11.0544 8.33317 10.8334V9.16675C8.33317 8.94573 8.24537 8.73377 8.08909 8.57749C7.93281 8.42121 7.72085 8.33341 7.49984 8.33341ZM17.4998 9.16675C17.7209 9.16675 17.9328 9.07895 18.0891 8.92267C18.2454 8.76639 18.3332 8.55443 18.3332 8.33341V5.00008C18.3332 4.77907 18.2454 4.56711 18.0891 4.41083C17.9328 4.25455 17.7209 4.16675 17.4998 4.16675H2.49984C2.27882 4.16675 2.06686 4.25455 1.91058 4.41083C1.7543 4.56711 1.6665 4.77907 1.6665 5.00008V8.33341C1.6665 8.55443 1.7543 8.76639 1.91058 8.92267C2.06686 9.07895 2.27882 9.16675 2.49984 9.16675C2.72085 9.16675 2.93281 9.25455 3.08909 9.41083C3.24537 9.56711 3.33317 9.77907 3.33317 10.0001C3.33317 10.2211 3.24537 10.4331 3.08909 10.5893C2.93281 10.7456 2.72085 10.8334 2.49984 10.8334C2.27882 10.8334 2.06686 10.9212 1.91058 11.0775C1.7543 11.2338 1.6665 11.4457 1.6665 11.6667V15.0001C1.6665 15.2211 1.7543 15.4331 1.91058 15.5893C2.06686 15.7456 2.27882 15.8334 2.49984 15.8334H17.4998C17.7209 15.8334 17.9328 15.7456 18.0891 15.5893C18.2454 15.4331 18.3332 15.2211 18.3332 15.0001V11.6667C18.3332 11.4457 18.2454 11.2338 18.0891 11.0775C17.9328 10.9212 17.7209 10.8334 17.4998 10.8334C17.2788 10.8334 17.0669 10.7456 16.9106 10.5893C16.7543 10.4331 16.6665 10.2211 16.6665 10.0001C16.6665 9.77907 16.7543 9.56711 16.9106 9.41083C17.0669 9.25455 17.2788 9.16675 17.4998 9.16675ZM16.6665 7.65008C16.1839 7.82525 15.7669 8.14477 15.4722 8.56522C15.1775 8.98567 15.0194 9.48665 15.0194 10.0001C15.0194 10.5135 15.1775 11.0145 15.4722 11.4349C15.7669 11.8554 16.1839 12.1749 16.6665 12.3501V14.1667H8.33317C8.33317 13.9457 8.24537 13.7338 8.08909 13.5775C7.93281 13.4212 7.72085 13.3334 7.49984 13.3334C7.27882 13.3334 7.06686 13.4212 6.91058 13.5775C6.7543 13.7338 6.6665 13.9457 6.6665 14.1667H3.33317V12.3501C3.8158 12.1749 4.23279 11.8554 4.52747 11.4349C4.82215 11.0145 4.98023 10.5135 4.98023 10.0001C4.98023 9.48665 4.82215 8.98567 4.52747 8.56522C4.23279 8.14477 3.8158 7.82525 3.33317 7.65008V5.83341H6.6665C6.6665 6.05443 6.7543 6.26639 6.91058 6.42267C7.06686 6.57895 7.27882 6.66675 7.49984 6.66675C7.72085 6.66675 7.93281 6.57895 8.08909 6.42267C8.24537 6.26639 8.33317 6.05443 8.33317 5.83341H16.6665V7.65008Z" fill="white"/>
</svg>
