<svg width="180" height="16" viewBox="0 0 180 16" fill="none" xmlns="http://www.w3.org/2000/svg">
<rect x="8.99158" y="0.284912" width="2" height="16" transform="rotate(24 8.99158 0.284912)" fill="#D9D9D9"/>
<rect x="17.3264" y="0.284912" width="2" height="16" transform="rotate(24 17.3264 0.284912)" fill="#D9D9D9"/>
<rect x="25.6613" y="0.284912" width="2" height="16" transform="rotate(24 25.6613 0.284912)" fill="#D9D9D9"/>
<rect x="33.9962" y="0.284912" width="2" height="16" transform="rotate(24 33.9962 0.284912)" fill="#D9D9D9"/>
<rect x="42.3311" y="0.284912" width="2" height="16" transform="rotate(24 42.3311 0.284912)" fill="#D9D9D9"/>
<rect x="50.6659" y="0.284912" width="2" height="16" transform="rotate(24 50.6659 0.284912)" fill="#D9D9D9"/>
<rect x="59.0009" y="0.284912" width="2" height="16" transform="rotate(24 59.0009 0.284912)" fill="#D9D9D9"/>
<rect x="67.3357" y="0.284912" width="2" height="16" transform="rotate(24 67.3357 0.284912)" fill="#D9D9D9"/>
<rect x="75.6705" y="0.284912" width="2" height="16" transform="rotate(24 75.6705 0.284912)" fill="#D9D9D9"/>
<rect x="84.0055" y="0.284912" width="2" height="16" transform="rotate(24 84.0055 0.284912)" fill="#D9D9D9"/>
<rect x="92.3403" y="0.284912" width="2" height="16" transform="rotate(24 92.3403 0.284912)" fill="#D9D9D9"/>
<rect x="100.675" y="0.284912" width="2" height="16" transform="rotate(24 100.675 0.284912)" fill="#D9D9D9"/>
<rect x="109.01" y="0.284912" width="2" height="16" transform="rotate(24 109.01 0.284912)" fill="#D9D9D9"/>
<rect x="117.345" y="0.284912" width="2" height="16" transform="rotate(24 117.345 0.284912)" fill="#D9D9D9"/>
<rect x="125.68" y="0.284912" width="2" height="16" transform="rotate(24 125.68 0.284912)" fill="#D9D9D9"/>
<rect x="134.015" y="0.284912" width="2" height="16" transform="rotate(24 134.015 0.284912)" fill="#D9D9D9"/>
<rect x="142.35" y="0.284912" width="2" height="16" transform="rotate(24 142.35 0.284912)" fill="#D9D9D9"/>
<rect x="150.684" y="0.284912" width="2" height="16" transform="rotate(24 150.684 0.284912)" fill="#D9D9D9"/>
<rect x="159.019" y="0.284912" width="2" height="16" transform="rotate(24 159.019 0.284912)" fill="#D9D9D9"/>
<rect x="167.354" y="0.284912" width="2" height="16" transform="rotate(24 167.354 0.284912)" fill="#D9D9D9"/>
<rect x="175.689" y="0.284912" width="2" height="16" transform="rotate(24 175.689 0.284912)" fill="#D9D9D9"/>
</svg>
