<svg width="88" height="28" viewBox="0 0 88 28" fill="none" xmlns="http://www.w3.org/2000/svg">
<path d="M29.912 25V16.6H31.292V25H29.912ZM35.252 25V16.6H36.632V25H35.252ZM30.86 21.28V20.02H35.552V21.28H30.86ZM40.915 25.12C40.355 25.12 39.847 24.988 39.391 24.724C38.935 24.452 38.571 24.088 38.299 23.632C38.035 23.176 37.903 22.668 37.903 22.108C37.903 21.548 38.035 21.044 38.299 20.596C38.571 20.148 38.935 19.792 39.391 19.528C39.847 19.256 40.355 19.12 40.915 19.12C41.483 19.12 41.995 19.252 42.451 19.516C42.907 19.78 43.267 20.14 43.531 20.596C43.803 21.044 43.939 21.548 43.939 22.108C43.939 22.668 43.803 23.176 43.531 23.632C43.267 24.088 42.907 24.452 42.451 24.724C41.995 24.988 41.483 25.12 40.915 25.12ZM40.915 23.848C41.243 23.848 41.531 23.776 41.779 23.632C42.035 23.48 42.231 23.272 42.367 23.008C42.511 22.744 42.583 22.444 42.583 22.108C42.583 21.772 42.511 21.476 42.367 21.22C42.223 20.964 42.027 20.764 41.779 20.62C41.531 20.468 41.243 20.392 40.915 20.392C40.595 20.392 40.307 20.468 40.051 20.62C39.803 20.764 39.607 20.964 39.463 21.22C39.327 21.476 39.259 21.772 39.259 22.108C39.259 22.444 39.327 22.744 39.463 23.008C39.607 23.272 39.803 23.48 40.051 23.632C40.307 23.776 40.595 23.848 40.915 23.848ZM45.0367 25V19.24H46.3567V25H45.0367ZM48.8647 25V21.568C48.8647 21.184 48.7447 20.888 48.5047 20.68C48.2647 20.464 47.9687 20.356 47.6167 20.356C47.3767 20.356 47.1607 20.404 46.9687 20.5C46.7847 20.596 46.6367 20.736 46.5247 20.92C46.4127 21.096 46.3567 21.312 46.3567 21.568L45.8407 21.28C45.8407 20.84 45.9367 20.46 46.1287 20.14C46.3207 19.82 46.5807 19.572 46.9087 19.396C47.2367 19.212 47.6047 19.12 48.0127 19.12C48.4207 19.12 48.7887 19.208 49.1167 19.384C49.4447 19.56 49.7047 19.808 49.8967 20.128C50.0887 20.448 50.1847 20.832 50.1847 21.28V25H48.8647ZM52.6927 25V21.568C52.6927 21.184 52.5727 20.888 52.3327 20.68C52.0927 20.464 51.7967 20.356 51.4447 20.356C51.2127 20.356 51.0007 20.404 50.8087 20.5C50.6167 20.596 50.4647 20.736 50.3527 20.92C50.2407 21.096 50.1847 21.312 50.1847 21.568L49.4407 21.28C49.4807 20.84 49.6087 20.46 49.8247 20.14C50.0407 19.82 50.3167 19.572 50.6527 19.396C50.9967 19.212 51.3727 19.12 51.7807 19.12C52.1967 19.12 52.5727 19.208 52.9087 19.384C53.2447 19.56 53.5127 19.808 53.7127 20.128C53.9127 20.448 54.0127 20.832 54.0127 21.28V25H52.6927ZM58.0486 25.12C57.4726 25.12 56.9526 24.992 56.4886 24.736C56.0326 24.472 55.6686 24.112 55.3966 23.656C55.1326 23.2 55.0006 22.688 55.0006 22.12C55.0006 21.552 55.1326 21.044 55.3966 20.596C55.6606 20.14 56.0166 19.78 56.4646 19.516C56.9206 19.252 57.4246 19.12 57.9766 19.12C58.5126 19.12 58.9846 19.244 59.3926 19.492C59.8086 19.74 60.1326 20.08 60.3646 20.512C60.6046 20.944 60.7246 21.436 60.7246 21.988C60.7246 22.084 60.7166 22.184 60.7006 22.288C60.6926 22.384 60.6766 22.492 60.6526 22.612H55.9246V21.532H59.9686L59.4766 21.964C59.4606 21.612 59.3926 21.316 59.2726 21.076C59.1526 20.836 58.9806 20.652 58.7566 20.524C58.5406 20.396 58.2726 20.332 57.9526 20.332C57.6166 20.332 57.3246 20.404 57.0766 20.548C56.8286 20.692 56.6366 20.896 56.5006 21.16C56.3646 21.416 56.2966 21.724 56.2966 22.084C56.2966 22.444 56.3686 22.76 56.5126 23.032C56.6566 23.304 56.8606 23.516 57.1246 23.668C57.3886 23.812 57.6926 23.884 58.0366 23.884C58.3326 23.884 58.6046 23.832 58.8526 23.728C59.1086 23.624 59.3246 23.472 59.5006 23.272L60.3406 24.124C60.0606 24.452 59.7206 24.7 59.3206 24.868C58.9206 25.036 58.4966 25.12 58.0486 25.12ZM65.7788 25.12C65.1708 25.12 64.6068 25.012 64.0868 24.796C63.5748 24.572 63.1268 24.264 62.7428 23.872C62.3588 23.472 62.0628 23.012 61.8548 22.492C61.6468 21.964 61.5428 21.4 61.5428 20.8C61.5428 20.2 61.6468 19.64 61.8548 19.12C62.0628 18.592 62.3588 18.132 62.7428 17.74C63.1268 17.348 63.5748 17.04 64.0868 16.816C64.6068 16.592 65.1708 16.48 65.7788 16.48C66.4588 16.48 67.0468 16.592 67.5428 16.816C68.0388 17.04 68.4788 17.344 68.8628 17.728L67.9268 18.664C67.6788 18.392 67.3748 18.18 67.0148 18.028C66.6628 17.876 66.2508 17.8 65.7788 17.8C65.3628 17.8 64.9828 17.872 64.6388 18.016C64.2948 18.16 63.9948 18.368 63.7388 18.64C63.4908 18.904 63.2988 19.22 63.1628 19.588C63.0268 19.956 62.9588 20.36 62.9588 20.8C62.9588 21.24 63.0268 21.644 63.1628 22.012C63.2988 22.38 63.4908 22.7 63.7388 22.972C63.9948 23.236 64.2948 23.44 64.6388 23.584C64.9828 23.728 65.3628 23.8 65.7788 23.8C66.2908 23.8 66.7228 23.724 67.0748 23.572C67.4348 23.412 67.7388 23.196 67.9868 22.924L68.9228 23.86C68.5388 24.252 68.0868 24.56 67.5668 24.784C67.0468 25.008 66.4508 25.12 65.7788 25.12ZM73.9222 25V21.676C73.9222 21.292 73.7982 20.976 73.5502 20.728C73.3102 20.48 72.9982 20.356 72.6142 20.356C72.3582 20.356 72.1302 20.412 71.9302 20.524C71.7302 20.636 71.5742 20.792 71.4622 20.992C71.3502 21.192 71.2942 21.42 71.2942 21.676L70.7782 21.388C70.7782 20.948 70.8742 20.56 71.0662 20.224C71.2582 19.88 71.5222 19.612 71.8582 19.42C72.2022 19.22 72.5862 19.12 73.0102 19.12C73.4422 19.12 73.8262 19.216 74.1622 19.408C74.4982 19.6 74.7622 19.868 74.9542 20.212C75.1462 20.548 75.2422 20.94 75.2422 21.388V25H73.9222ZM69.9742 25V16.36H71.2942V25H69.9742ZM79.2596 25.12C78.6836 25.12 78.1636 24.992 77.6996 24.736C77.2436 24.472 76.8796 24.112 76.6076 23.656C76.3436 23.2 76.2116 22.688 76.2116 22.12C76.2116 21.552 76.3436 21.044 76.6076 20.596C76.8716 20.14 77.2276 19.78 77.6756 19.516C78.1316 19.252 78.6356 19.12 79.1876 19.12C79.7236 19.12 80.1956 19.244 80.6036 19.492C81.0196 19.74 81.3436 20.08 81.5756 20.512C81.8156 20.944 81.9356 21.436 81.9356 21.988C81.9356 22.084 81.9276 22.184 81.9116 22.288C81.9036 22.384 81.8876 22.492 81.8636 22.612H77.1356V21.532H81.1796L80.6876 21.964C80.6716 21.612 80.6036 21.316 80.4836 21.076C80.3636 20.836 80.1916 20.652 79.9676 20.524C79.7516 20.396 79.4836 20.332 79.1636 20.332C78.8276 20.332 78.5356 20.404 78.2876 20.548C78.0396 20.692 77.8476 20.896 77.7116 21.16C77.5756 21.416 77.5076 21.724 77.5076 22.084C77.5076 22.444 77.5796 22.76 77.7236 23.032C77.8676 23.304 78.0716 23.516 78.3356 23.668C78.5996 23.812 78.9036 23.884 79.2476 23.884C79.5436 23.884 79.8156 23.832 80.0636 23.728C80.3196 23.624 80.5356 23.472 80.7116 23.272L81.5516 24.124C81.2716 24.452 80.9316 24.7 80.5316 24.868C80.1316 25.036 79.7076 25.12 79.2596 25.12ZM83.6334 25V18.484C83.6334 18.044 83.7294 17.656 83.9214 17.32C84.1214 16.984 84.3934 16.72 84.7374 16.528C85.0894 16.336 85.4934 16.24 85.9494 16.24C86.3014 16.24 86.6014 16.3 86.8494 16.42C87.0974 16.54 87.3294 16.712 87.5454 16.936L86.6934 17.788C86.5974 17.692 86.4934 17.616 86.3814 17.56C86.2694 17.504 86.1254 17.476 85.9494 17.476C85.6294 17.476 85.3814 17.564 85.2054 17.74C85.0374 17.908 84.9534 18.152 84.9534 18.472V25H83.6334ZM82.2534 20.44V19.24H86.6934V20.44H82.2534Z" fill="#394150"/>
<path d="M12.1651 10.2594C12.1651 13.581 9.44188 16.2736 6.08257 16.2736C2.72326 16.2736 0 13.581 0 10.2594C0 6.93791 2.72326 4.24528 6.08257 4.24528C9.44188 4.24528 12.1651 6.93791 12.1651 10.2594Z" fill="#394150"/>
<path d="M19.3211 6.01415C19.3211 9.33567 16.5978 12.0283 13.2385 12.0283C9.87922 12.0283 7.15596 9.33567 7.15596 6.01415C7.15596 2.69263 9.87922 0 13.2385 0C16.5978 0 19.3211 2.69263 19.3211 6.01415Z" fill="#394150"/>
<path d="M26 10.2594C26 13.581 23.2767 16.2736 19.9174 16.2736C16.5581 16.2736 13.8349 13.581 13.8349 10.2594C13.8349 6.93791 16.5581 4.24528 19.9174 4.24528C23.2767 4.24528 26 6.93791 26 10.2594Z" fill="#394150"/>
<path d="M6.20183 8.96226H20.0367V16.2736H6.20183V8.96226Z" fill="#394150"/>
<path d="M5.00917 18.6321C5.00917 18.2413 5.32956 17.9245 5.72477 17.9245H20.7523C21.1475 17.9245 21.4679 18.2413 21.4679 18.6321V24.2925C21.4679 24.6832 21.1475 25 20.7523 25H5.72477C5.32956 25 5.00917 24.6832 5.00917 24.2925V18.6321Z" fill="#394150"/>
</svg>
