<svg width="20" height="20" viewBox="0 0 20 20" fill="none" xmlns="http://www.w3.org/2000/svg">
<path d="M16.8001 4.16672C15.9167 3.28106 14.7457 2.74051 13.4987 2.6427C12.2516 2.54489 11.0107 2.89628 10.0001 3.63339C8.93978 2.84475 7.62006 2.48715 6.30667 2.63259C4.99327 2.77803 3.78377 3.4157 2.92171 4.41721C2.05966 5.41872 1.60909 6.70966 1.66073 8.03007C1.71238 9.35048 2.26242 10.6023 3.20007 11.5334L8.37507 16.7167C8.80842 17.1432 9.39206 17.3822 10.0001 17.3822C10.6081 17.3822 11.1917 17.1432 11.6251 16.7167L16.8001 11.5334C17.7731 10.5544 18.3192 9.23028 18.3192 7.85006C18.3192 6.46983 17.7731 5.14567 16.8001 4.16672V4.16672ZM15.6251 10.3834L10.4501 15.5584C10.3912 15.6179 10.3211 15.6651 10.2439 15.6973C10.1666 15.7295 10.0838 15.7461 10.0001 15.7461C9.91638 15.7461 9.83352 15.7295 9.75628 15.6973C9.67904 15.6651 9.60896 15.6179 9.55007 15.5584L4.37507 10.3584C3.72153 9.69034 3.35558 8.79294 3.35558 7.85839C3.35558 6.92384 3.72153 6.02644 4.37507 5.35839C5.04103 4.70088 5.93921 4.3322 6.87507 4.3322C7.81092 4.3322 8.7091 4.70088 9.37507 5.35839C9.45254 5.4365 9.5447 5.49849 9.64625 5.5408C9.7478 5.58311 9.85672 5.60489 9.96673 5.60489C10.0767 5.60489 10.1857 5.58311 10.2872 5.5408C10.3888 5.49849 10.4809 5.4365 10.5584 5.35839C11.2244 4.70088 12.1225 4.3322 13.0584 4.3322C13.9943 4.3322 14.8924 4.70088 15.5584 5.35839C16.2209 6.01768 16.5989 6.91022 16.6114 7.84479C16.6238 8.77937 16.2698 9.68167 15.6251 10.3584V10.3834Z" fill="black"/>
</svg>
